<?xml version="1.0" encoding="utf-8"?>
<!-- Generator: Adobe Illustrator 19.0.0, SVG Export Plug-In . SVG Version: 6.00 Build 0)  -->
<svg version="1.1" id="Layer_1" xmlns="http://www.w3.org/2000/svg" xmlns:xlink="http://www.w3.org/1999/xlink" x="0px" y="0px"
	 viewBox="0 0 86.2 25.6" style="enable-background:new 0 0 86.2 25.6;" xml:space="preserve">
<style type="text/css">
	.st0{fill:#9F9E9E;}
</style>
<g>
	<polygon class="st0" points="76.3,25.6 76.3,14.7 71,0 76.1,0 78.6,7.1 81.1,0 86.2,0 81.1,14.7 81.1,25.6 	"/>
	<polygon class="st0" points="0,25.6 0,0 13.1,0 13.1,4.8 4.8,4.8 4.8,10.4 10.5,10.4 10.5,15.2 4.8,15.2 4.8,20.8 13.1,20.8 
		13.1,25.6 	"/>
	<polygon class="st0" points="41.4,25.6 36.4,0 41.3,0 43.9,13.1 46.4,0 51.3,0 46.3,25.6 	"/>
	<path class="st0" d="M61.3,25.6c-4,0-7.3-3.3-7.3-7.3V7.4c0-4,3.3-7.3,7.3-7.3c4,0,7.3,3.3,7.3,7.3v10.9
		C68.7,22.3,65.4,25.6,61.3,25.6L61.3,25.6z M61.3,4.8c-1.4,0-2.6,1.1-2.6,2.5v10.9c0,1.4,1.1,2.5,2.6,2.5c1.4,0,2.5-1.1,2.5-2.5
		V7.4C63.9,5.9,62.7,4.8,61.3,4.8L61.3,4.8z"/>
	<polygon class="st0" points="27.6,25.6 22.5,12.9 22.5,25.6 17.7,25.6 17.7,0 22.5,0 27.6,12.7 27.6,0 32.4,0 32.4,25.6 	"/>
</g>
</svg>
